<?xml version="1.0" encoding="utf-8"?>
<!-- Generator: Adobe Illustrator 27.0.0, SVG Export Plug-In . SVG Version: 6.00 Build 0)  -->
<svg version="1.1" xmlns="http://www.w3.org/2000/svg" xmlns:xlink="http://www.w3.org/1999/xlink" x="0px" y="0px"
	 viewBox="0 0 1984.25 566.93" style="enable-background:new 0 0 1984.25 566.93;" xml:space="preserve">
<style type="text/css">
	.st0{display:none;}
	.st1{display:inline;}
	.st2{fill:#E6E6E6;}
	.st3{fill:#6E479C;}
	.st4{font-family:'MicrosoftNewTaiLue';}
	.st5{font-size:181.9722px;}
	.st6{font-size:186.4141px;}
</style>
<g id="Layer_3" class="st0">
	<rect x="-13" class="st1" width="2024" height="589"/>
</g>
<g id="Layer_1">
	<path class="st2" d="M560.28,51.76v463.22c0,26.38-21.38,47.76-47.76,47.76H50.29c-26.38,0-47.76-21.38-47.76-47.76V51.76
		C2.53,25.38,23.91,4,50.29,4h155.77c26.38,0,47.76,21.38,47.76,47.76v15.83c0,26.38-21.38,47.76-47.76,47.76h-44.41
		c-26.38,0-47.76,21.38-47.76,47.76v239.53c0,26.38,21.38,47.76,47.76,47.76h239.53c26.38,0,47.76-21.38,47.76-47.76V163.11
		c0-26.38-21.38-47.76-47.76-47.76h-44.41c-26.38,0-47.76-21.38-47.76-47.76V51.76C309,25.38,330.38,4,356.76,4h155.77
		C538.9,4,560.28,25.38,560.28,51.76z"/>
	<path class="st3" d="M300.13,237.55l13.8-31.53c0,0,0-2.96-0.99,0l-15.77,35.48l-1.97,3.94c0,0-3.94,6.9-1.97,12.81l-0.85-1.28
		c-0.34-0.5-1.12-0.27-1.12,0.34v0.45c0,0.54-0.66,0.82-1.04,0.43l-0.87-0.87c-0.38-0.38-1.04-0.11-1.04,0.43l0,0
		c0,0.53,0.39,1.84,0,1.48c-1.98-1.82-7.95-6.66-16.7-8.85c-0.04-0.01-0.07-0.02-0.1-0.03c-0.78-0.28-11.21-4.04-21.63-6.88
		c0.1,0.03-1.6-0.41-13.8-4.93c0,0-1.97,0,0,0.99l11.83,3.94c0.14,0.06,2.82,0.92,2.96,0.99c1.97,0.99,10.01,1.64,20.69,6.9
		c0.28,0.14,2.64,0.99,2.96,0.99c0.99,0,4.67,1.15,12.81,6.9c0.61,0.43-0.06,1.43-0.13,2.17c-0.1,1.03-0.24,2.6-0.29,4.15
		c-0.05,1.66-1.92,2.6-3.27,1.63c-8.9-6.37-34.15-21.19-78.1-22.73c-49.94-1.75-70.28,19.09-74.18,23.73
		c-0.48,0.57-0.84,1.21-1.07,1.92c-1.11,3.42-3.94,14.61,4.04,20.47c0.16,0.12,0.34,0.21,0.53,0.29c0.73,0.3,2.69,1.25,2.69,2.86
		c0,1.97,2.96,3.94,4.93,2.96c1.85-0.92,2.38,1.64,2.13,2.75c-0.09,0.4-0.01,0.51,0.01,0.54c0.79,1.57,1.02,1.69,3.29,0.83
		c0.34-0.13,0.71-0.13,1.05,0c1.05,0.4,2.39,1.78,2.39,3.76c0,0,0,2.72,3.48,2.07c0.32-0.06,0.66-0.07,0.98,0.01
		c1.44,0.37,4.41,1.86,5.4,5.8c0,0,0.92,3.66,5.39,3.93c0.35,0.02,0.69,0.11,0.99,0.29c1.64,1,7.13,4.53,8.57,7.97
		c1.17,2.8,3.14,5.21,5.85,6.58c3.87,1.95,5.82,3.92,6.79,6.85c0.99,2.96,18.72,15.77,32.52,5.91c0,0,2.96-1.97,0,2.96
		c-2.89,4.81-2.95,30.28,8.96,33.32c0.57,0.14,1.03,0.55,1.28,1.08c1.19,2.49,5.2,9.28,13.5,9.01c0.55-0.02,1.1,0.16,1.49,0.55
		c1.3,1.26,4.43,4.12,6.73,4.79c0.38,0.11,0.7,0.35,0.95,0.66c1.23,1.55,5.16,5.85,10.38,5.02c0.67-0.11,1.35,0.12,1.81,0.62
		c2.89,3.11,13.07,13.42,16.71,8.42c0.19-0.27,0.42-0.5,0.72-0.64c1.59-0.79,6.9-3.09,9.4,0.24c0,0,12.34,10.44,21.19-1.29
		c0.3-0.4,0.73-0.7,1.22-0.8c2.43-0.51,10.12-3.04,10.12-14.66c0,0,0.74-37.11-6.15-65.6c-0.54-2.23,2.41-3.56,3.73-1.68L334.62,342
		c0,0,34.41,51.61,50.51,35.29c0.47-0.47,1.14-0.67,1.8-0.56c2.97,0.5,11.28,0.62,13.71-13.02c0.01-0.03,0.01-0.06,0.02-0.09
		c0.12-0.45,1.17-3.96,3.93-4.88c0,0,12.81-1.97,7.88-17.74c0,0-0.99-2.96,1.13-4.32c0,0,3.53-1.48,3.79-9.54
		c0.02-0.51,0.24-0.98,0.6-1.33c0.79-0.76,2.04-2.83,1.41-8.22c-0.02-0.14-0.05-0.27-0.09-0.4c-0.17-0.48-0.55-1.98,0.81-3.54
		c0.15-0.17,0.28-0.36,0.37-0.58c1.41-3.55,12.78-34.73-17.87-44.02c0,0-1.56-0.78-0.52-2.34c0.26-0.39,0.7-0.61,1.16-0.68
		c2.65-0.37,12.83-3.11,17.1-23.59c0,0,0.9-3.59-0.73-5.63c-0.17-0.21-0.31-0.43-0.4-0.68c-0.42-1.19-0.84-4.53,0.15-5.52
		c0,0,2.72-6.34,0.34-9.47c-0.21-0.27-0.38-0.57-0.43-0.91c-0.34-1.98-1.38-9.12,0.78-11.95c0.19-0.24,0.34-0.5,0.42-0.8
		c0.36-1.49,1.31-6.18-0.81-7.3c-0.17-0.09-0.29-0.34-0.29-0.54c0.02-1.49,0-5.5,0.98-6.49c0,0,3.94-5.91,0.99-7.88
		c0,0-2.51-1.67,0.18-3.48c0.51-0.34,0.87-0.87,0.95-1.49c0.23-1.83,0.58-5.76-0.11-8.68c-0.03-0.11-0.04-0.22-0.04-0.33
		c-0.01-0.59,0.04-2.47,1.06-3.45c0.27-0.26,0.41-0.62,0.48-0.98c0.3-1.6,0.76-5.41-1.33-7.05c-0.13-0.1-0.26-0.22-0.36-0.35
		l-3.78-4.73c0,0-4.93-6.9-20.69-5.91c0,0-9.8-1.96-46.97,25.38c-0.22,0.16-0.47,0.28-0.73,0.34l-2.85,0.71
		c-0.45,0.11-0.85,0.37-1.13,0.73c-3.49,4.45-26.66,34.4-33.05,52.61c-0.01,0.03-0.02,0.05-0.03,0.08
		c-0.42,0.94-8.66,19.62-11.72,31.72c-0.43,1.69-2.63,2.16-3.67,0.76c-0.68-0.91-1.48-1.77-2.42-2.43c-0.55-0.39-1.88-1.83-1.88-2.5
		v-2.96c0-0.99,1.12-4.22,1.4-4.75"/>
</g>
<g id="Layer_2">
	<rect x="630.69" y="268" class="st3" width="1326.61" height="29"/>
	<text transform="matrix(1 0 0 1 622.1494 242.6938)" class="st2 st4 st5">C</text>
	<text transform="matrix(1 0 0 1 841.334 243.002)" class="st2 st4 st6">L</text>
	<text transform="matrix(1 0 0 1 1029.9038 244.0127)" class="st2 st4 st6">A</text>
	<text transform="matrix(1 0 0 1 1230.2656 242.885)" class="st2 st4 st6">U</text>
	<text transform="matrix(1 0 0 1 1434.8613 243.8425)" class="st2 st4 st6">D</text>
	<text transform="matrix(1 0 0 1 1673.4358 243.7148)" class="st2 st4 st6">I</text>
	<text transform="matrix(1 0 0 1 1838.3933 243.2893)" class="st2 st4 st6">A</text>
	<text transform="matrix(1 0 0 1 648.5519 449.0558)" class="st2 st4 st5">J</text>
	<text transform="matrix(1 0 0 1 816.9625 449.928)" class="st2 st4 st5">O</text>
	<text transform="matrix(1 0 0 1 1022.7923 453.0982)" class="st2 st4 st5">H</text>
	<text transform="matrix(1 0 0 1 1227.3668 452.2472)" class="st2 st4 st5">N</text>
	<text transform="matrix(1 0 0 1 1452.6221 449.2259)" class="st2 st4 st5">S</text>
	<text transform="matrix(1 0 0 1 1628.6433 450.2259)" class="st2 st4 st5">O</text>
	<text transform="matrix(1 0 0 1 1830.1327 452.7578)" class="st2 st4 st5">N</text>
</g>
</svg>
